<svg xmlns="http://www.w3.org/2000/svg" viewBox="0 0 860 300" role="img" aria-label="Studio anatomy: channels and pillars meet in a card. Vault (ratified memory) and memory (provisional ledger) both feed the draft; memory graduates into vault after ships and your sign-off.">
<rect x="0" y="0" width="860" height="300" rx="12" ry="12" fill="#141210"/>
<rect x="20" y="18" width="390" height="62" rx="8" ry="8" fill="#1d1a17" stroke="#2a251f" stroke-width="1"/>
<text x="215" y="44" font-family="ui-monospace, 'SF Mono', Menlo, monospace" font-size="13" fill="#e8e0d4" text-anchor="middle">channels — where you publish</text>
<text x="215" y="66" font-family="ui-monospace, 'SF Mono', Menlo, monospace" font-size="11" fill="#8a7f70" text-anchor="middle">linkedin · blog · x</text>
<rect x="450" y="18" width="390" height="62" rx="8" ry="8" fill="#1d1a17" stroke="#2a251f" stroke-width="1"/>
<text x="645" y="44" font-family="ui-monospace, 'SF Mono', Menlo, monospace" font-size="13" fill="#e8e0d4" text-anchor="middle">pillars — what you own</text>
<text x="645" y="66" font-family="ui-monospace, 'SF Mono', Menlo, monospace" font-size="11" fill="#8a7f70" text-anchor="middle">3–5 themes, one per card</text>
<line x1="215" y1="80" x2="357.2" y2="116.0" stroke="#8a7f70" stroke-width="1"/>
<polygon points="365,118 356.3,119.9 358.2,112.2" fill="#8a7f70"/>
<line x1="645" y1="80" x2="502.8" y2="116.0" stroke="#8a7f70" stroke-width="1"/>
<polygon points="495,118 501.8,112.2 503.7,119.9" fill="#8a7f70"/>
<rect x="300" y="118" width="260" height="50" rx="8" ry="8" fill="#1d1a17" stroke="#e09a5a" stroke-width="2"/>
<text x="430" y="148" font-family="ui-monospace, 'SF Mono', Menlo, monospace" font-size="13" fill="#e09a5a" text-anchor="middle">card = one pillar × channels</text>
<line x1="430" y1="168" x2="430.0" y2="188.0" stroke="#8a7f70" stroke-width="1"/>
<polygon points="430,196 426.0,188.0 434.0,188.0" fill="#8a7f70"/>
<rect x="20" y="196" width="300" height="58" rx="8" ry="8" fill="#1d1a17" stroke="#2a251f" stroke-width="1"/>
<text x="170" y="222" font-family="ui-monospace, 'SF Mono', Menlo, monospace" font-size="13" fill="#e8e0d4" text-anchor="middle">vault/ — ratified memory (canon)</text>
<text x="170" y="244" font-family="ui-monospace, 'SF Mono', Menlo, monospace" font-size="11" fill="#8a7f70" text-anchor="middle">voice · bio · strategy · rubric</text>
<rect x="540" y="196" width="300" height="58" rx="8" ry="8" fill="#1d1a17" stroke="#2a251f" stroke-width="1"/>
<text x="690" y="222" font-family="ui-monospace, 'SF Mono', Menlo, monospace" font-size="13" fill="#e8e0d4" text-anchor="middle">memory/ — provisional ledger</text>
<text x="690" y="244" font-family="ui-monospace, 'SF Mono', Menlo, monospace" font-size="11" fill="#8a7f70" text-anchor="middle">learnings · your edit diffs</text>
<rect x="360" y="196" width="140" height="58" rx="8" ry="8" fill="#1d1a17" stroke="#2a251f" stroke-width="1"/>
<text x="430" y="230" font-family="ui-monospace, 'SF Mono', Menlo, monospace" font-size="15" fill="#e8e0d4" text-anchor="middle">draft</text>
<line x1="320" y1="225" x2="352.0" y2="225.0" stroke="#c47a3d" stroke-width="2"/>
<polygon points="360,225 352.0,229.0 352.0,221.0" fill="#c47a3d"/>
<line x1="540" y1="225" x2="508.0" y2="225.0" stroke="#c47a3d" stroke-width="2"/>
<polygon points="500,225 508.0,221.0 508.0,229.0" fill="#c47a3d"/>
<line x1="690" y1="272" x2="178.0" y2="272.0" stroke="#8a7f70" stroke-width="1" stroke-dasharray="4 3"/>
<polygon points="170,272 178.0,268.0 178.0,276.0" fill="#8a7f70"/>
<text x="430" y="290" font-family="ui-monospace, 'SF Mono', Menlo, monospace" font-size="11" fill="#8a7f70" text-anchor="middle">graduates after 3+ ships + your sign-off</text>
</svg>
