<svg xmlns="http://www.w3.org/2000/svg" viewBox="0 0 594 240" role="img" aria-label="Writers Room">
<rect x="0" y="0" width="9" height="16" fill="#c47a3d" fill-opacity="0.38"/>
<rect x="9" y="0" width="9" height="16" fill="#c47a3d" fill-opacity="1"/>
<rect x="18" y="0" width="9" height="16" fill="#c47a3d" fill-opacity="1"/>
<rect x="90" y="0" width="9" height="16" fill="#c47a3d" fill-opacity="0.38"/>
<rect x="99" y="0" width="9" height="16" fill="#c47a3d" fill-opacity="1"/>
<rect x="108" y="0" width="9" height="16" fill="#c47a3d" fill-opacity="1"/>
<rect x="207" y="0" width="9" height="16" fill="#c47a3d" fill-opacity="0.38"/>
<rect x="216" y="0" width="9" height="16" fill="#c47a3d" fill-opacity="1"/>
<rect x="225" y="0" width="9" height="16" fill="#c47a3d" fill-opacity="1"/>
<rect x="261" y="0" width="9" height="16" fill="#c47a3d" fill-opacity="0.38"/>
<rect x="270" y="0" width="9" height="16" fill="#c47a3d" fill-opacity="1"/>
<rect x="279" y="0" width="9" height="16" fill="#c47a3d" fill-opacity="1"/>
<rect x="0" y="16" width="9" height="16" fill="#c47a3d" fill-opacity="0.38"/>
<rect x="9" y="16" width="9" height="16" fill="#c47a3d" fill-opacity="1"/>
<rect x="18" y="16" width="9" height="16" fill="#c47a3d" fill-opacity="1"/>
<rect x="90" y="16" width="9" height="16" fill="#c47a3d" fill-opacity="0.38"/>
<rect x="99" y="16" width="9" height="16" fill="#c47a3d" fill-opacity="1"/>
<rect x="108" y="16" width="9" height="16" fill="#c47a3d" fill-opacity="1"/>
<rect x="261" y="16" width="9" height="16" fill="#c47a3d" fill-opacity="0.38"/>
<rect x="270" y="16" width="9" height="16" fill="#c47a3d" fill-opacity="1"/>
<rect x="279" y="16" width="9" height="16" fill="#c47a3d" fill-opacity="1"/>
<rect x="0" y="32" width="9" height="16" fill="#c47a3d" fill-opacity="0.38"/>
<rect x="9" y="32" width="9" height="16" fill="#c47a3d" fill-opacity="1"/>
<rect x="18" y="32" width="9" height="16" fill="#c47a3d" fill-opacity="1"/>
<rect x="45" y="32" width="9" height="16" fill="#c47a3d" fill-opacity="0.38"/>
<rect x="54" y="32" width="9" height="16" fill="#c47a3d" fill-opacity="1"/>
<rect x="63" y="32" width="9" height="16" fill="#c47a3d" fill-opacity="1"/>
<rect x="90" y="32" width="9" height="16" fill="#c47a3d" fill-opacity="0.38"/>
<rect x="99" y="32" width="9" height="16" fill="#c47a3d" fill-opacity="1"/>
<rect x="108" y="32" width="9" height="16" fill="#c47a3d" fill-opacity="1"/>
<rect x="126" y="32" width="9" height="16" fill="#c47a3d" fill-opacity="0.38"/>
<rect x="135" y="32" width="9" height="16" fill="#c47a3d" fill-opacity="1"/>
<rect x="144" y="32" width="9" height="16" fill="#c47a3d" fill-opacity="1"/>
<rect x="153" y="32" width="9" height="16" fill="#c47a3d" fill-opacity="0.38"/>
<rect x="162" y="32" width="9" height="16" fill="#c47a3d" fill-opacity="1"/>
<rect x="171" y="32" width="9" height="16" fill="#c47a3d" fill-opacity="1"/>
<rect x="180" y="32" width="9" height="16" fill="#c47a3d" fill-opacity="1"/>
<rect x="189" y="32" width="9" height="16" fill="#c47a3d" fill-opacity="1"/>
<rect x="207" y="32" width="9" height="16" fill="#c47a3d" fill-opacity="0.38"/>
<rect x="216" y="32" width="9" height="16" fill="#c47a3d" fill-opacity="1"/>
<rect x="225" y="32" width="9" height="16" fill="#c47a3d" fill-opacity="1"/>
<rect x="234" y="32" width="9" height="16" fill="#c47a3d" fill-opacity="0.38"/>
<rect x="243" y="32" width="9" height="16" fill="#c47a3d" fill-opacity="1"/>
<rect x="252" y="32" width="9" height="16" fill="#c47a3d" fill-opacity="1"/>
<rect x="261" y="32" width="9" height="16" fill="#c47a3d" fill-opacity="1"/>
<rect x="270" y="32" width="9" height="16" fill="#c47a3d" fill-opacity="1"/>
<rect x="279" y="32" width="9" height="16" fill="#c47a3d" fill-opacity="1"/>
<rect x="288" y="32" width="9" height="16" fill="#c47a3d" fill-opacity="1"/>
<rect x="297" y="32" width="9" height="16" fill="#c47a3d" fill-opacity="1"/>
<rect x="306" y="32" width="9" height="16" fill="#c47a3d" fill-opacity="1"/>
<rect x="333" y="32" width="9" height="16" fill="#c47a3d" fill-opacity="0.38"/>
<rect x="342" y="32" width="9" height="16" fill="#c47a3d" fill-opacity="1"/>
<rect x="351" y="32" width="9" height="16" fill="#c47a3d" fill-opacity="1"/>
<rect x="360" y="32" width="9" height="16" fill="#c47a3d" fill-opacity="1"/>
<rect x="369" y="32" width="9" height="16" fill="#c47a3d" fill-opacity="1"/>
<rect x="378" y="32" width="9" height="16" fill="#c47a3d" fill-opacity="1"/>
<rect x="387" y="32" width="9" height="16" fill="#c47a3d" fill-opacity="1"/>
<rect x="396" y="32" width="9" height="16" fill="#c47a3d" fill-opacity="1"/>
<rect x="423" y="32" width="9" height="16" fill="#c47a3d" fill-opacity="0.38"/>
<rect x="432" y="32" width="9" height="16" fill="#c47a3d" fill-opacity="1"/>
<rect x="441" y="32" width="9" height="16" fill="#c47a3d" fill-opacity="1"/>
<rect x="450" y="32" width="9" height="16" fill="#c47a3d" fill-opacity="0.38"/>
<rect x="459" y="32" width="9" height="16" fill="#c47a3d" fill-opacity="1"/>
<rect x="468" y="32" width="9" height="16" fill="#c47a3d" fill-opacity="1"/>
<rect x="477" y="32" width="9" height="16" fill="#c47a3d" fill-opacity="1"/>
<rect x="486" y="32" width="9" height="16" fill="#c47a3d" fill-opacity="1"/>
<rect x="513" y="32" width="9" height="16" fill="#c47a3d" fill-opacity="0.38"/>
<rect x="522" y="32" width="9" height="16" fill="#c47a3d" fill-opacity="1"/>
<rect x="531" y="32" width="9" height="16" fill="#c47a3d" fill-opacity="1"/>
<rect x="540" y="32" width="9" height="16" fill="#c47a3d" fill-opacity="1"/>
<rect x="549" y="32" width="9" height="16" fill="#c47a3d" fill-opacity="1"/>
<rect x="558" y="32" width="9" height="16" fill="#c47a3d" fill-opacity="1"/>
<rect x="567" y="32" width="9" height="16" fill="#c47a3d" fill-opacity="1"/>
<rect x="576" y="32" width="9" height="16" fill="#c47a3d" fill-opacity="1"/>
<rect x="0" y="48" width="9" height="16" fill="#c47a3d" fill-opacity="0.38"/>
<rect x="9" y="48" width="9" height="16" fill="#c47a3d" fill-opacity="1"/>
<rect x="18" y="48" width="9" height="16" fill="#c47a3d" fill-opacity="1"/>
<rect x="36" y="48" width="9" height="16" fill="#c47a3d" fill-opacity="0.38"/>
<rect x="45" y="48" width="9" height="16" fill="#c47a3d" fill-opacity="1"/>
<rect x="54" y="48" width="9" height="16" fill="#c47a3d" fill-opacity="1"/>
<rect x="63" y="48" width="9" height="16" fill="#c47a3d" fill-opacity="1"/>
<rect x="72" y="48" width="9" height="16" fill="#c47a3d" fill-opacity="1"/>
<rect x="90" y="48" width="9" height="16" fill="#c47a3d" fill-opacity="0.38"/>
<rect x="99" y="48" width="9" height="16" fill="#c47a3d" fill-opacity="1"/>
<rect x="108" y="48" width="9" height="16" fill="#c47a3d" fill-opacity="1"/>
<rect x="126" y="48" width="9" height="16" fill="#c47a3d" fill-opacity="0.38"/>
<rect x="135" y="48" width="9" height="16" fill="#c47a3d" fill-opacity="1"/>
<rect x="144" y="48" width="9" height="16" fill="#c47a3d" fill-opacity="1"/>
<rect x="153" y="48" width="9" height="16" fill="#c47a3d" fill-opacity="1"/>
<rect x="207" y="48" width="9" height="16" fill="#c47a3d" fill-opacity="0.38"/>
<rect x="216" y="48" width="9" height="16" fill="#c47a3d" fill-opacity="1"/>
<rect x="225" y="48" width="9" height="16" fill="#c47a3d" fill-opacity="1"/>
<rect x="261" y="48" width="9" height="16" fill="#c47a3d" fill-opacity="0.38"/>
<rect x="270" y="48" width="9" height="16" fill="#c47a3d" fill-opacity="1"/>
<rect x="279" y="48" width="9" height="16" fill="#c47a3d" fill-opacity="1"/>
<rect x="324" y="48" width="9" height="16" fill="#c47a3d" fill-opacity="0.38"/>
<rect x="333" y="48" width="9" height="16" fill="#c47a3d" fill-opacity="1"/>
<rect x="342" y="48" width="9" height="16" fill="#c47a3d" fill-opacity="1"/>
<rect x="387" y="48" width="9" height="16" fill="#c47a3d" fill-opacity="0.38"/>
<rect x="396" y="48" width="9" height="16" fill="#c47a3d" fill-opacity="1"/>
<rect x="405" y="48" width="9" height="16" fill="#c47a3d" fill-opacity="1"/>
<rect x="423" y="48" width="9" height="16" fill="#c47a3d" fill-opacity="0.38"/>
<rect x="432" y="48" width="9" height="16" fill="#c47a3d" fill-opacity="1"/>
<rect x="441" y="48" width="9" height="16" fill="#c47a3d" fill-opacity="1"/>
<rect x="450" y="48" width="9" height="16" fill="#c47a3d" fill-opacity="1"/>
<rect x="504" y="48" width="9" height="16" fill="#c47a3d" fill-opacity="0.38"/>
<rect x="513" y="48" width="9" height="16" fill="#c47a3d" fill-opacity="1"/>
<rect x="522" y="48" width="9" height="16" fill="#c47a3d" fill-opacity="1"/>
<rect x="0" y="64" width="9" height="16" fill="#c47a3d" fill-opacity="0.38"/>
<rect x="9" y="64" width="9" height="16" fill="#c47a3d" fill-opacity="1"/>
<rect x="18" y="64" width="9" height="16" fill="#c47a3d" fill-opacity="1"/>
<rect x="27" y="64" width="9" height="16" fill="#c47a3d" fill-opacity="0.38"/>
<rect x="36" y="64" width="9" height="16" fill="#c47a3d" fill-opacity="1"/>
<rect x="45" y="64" width="9" height="16" fill="#c47a3d" fill-opacity="1"/>
<rect x="63" y="64" width="9" height="16" fill="#c47a3d" fill-opacity="0.38"/>
<rect x="72" y="64" width="9" height="16" fill="#c47a3d" fill-opacity="1"/>
<rect x="81" y="64" width="9" height="16" fill="#c47a3d" fill-opacity="1"/>
<rect x="90" y="64" width="9" height="16" fill="#c47a3d" fill-opacity="0.38"/>
<rect x="99" y="64" width="9" height="16" fill="#c47a3d" fill-opacity="1"/>
<rect x="108" y="64" width="9" height="16" fill="#c47a3d" fill-opacity="1"/>
<rect x="126" y="64" width="9" height="16" fill="#c47a3d" fill-opacity="0.38"/>
<rect x="135" y="64" width="9" height="16" fill="#c47a3d" fill-opacity="1"/>
<rect x="144" y="64" width="9" height="16" fill="#c47a3d" fill-opacity="1"/>
<rect x="207" y="64" width="9" height="16" fill="#c47a3d" fill-opacity="0.38"/>
<rect x="216" y="64" width="9" height="16" fill="#c47a3d" fill-opacity="1"/>
<rect x="225" y="64" width="9" height="16" fill="#c47a3d" fill-opacity="1"/>
<rect x="261" y="64" width="9" height="16" fill="#c47a3d" fill-opacity="0.38"/>
<rect x="270" y="64" width="9" height="16" fill="#c47a3d" fill-opacity="1"/>
<rect x="279" y="64" width="9" height="16" fill="#c47a3d" fill-opacity="1"/>
<rect x="324" y="64" width="9" height="16" fill="#c47a3d" fill-opacity="0.38"/>
<rect x="333" y="64" width="9" height="16" fill="#c47a3d" fill-opacity="1"/>
<rect x="342" y="64" width="9" height="16" fill="#c47a3d" fill-opacity="1"/>
<rect x="351" y="64" width="9" height="16" fill="#c47a3d" fill-opacity="1"/>
<rect x="360" y="64" width="9" height="16" fill="#c47a3d" fill-opacity="1"/>
<rect x="369" y="64" width="9" height="16" fill="#c47a3d" fill-opacity="1"/>
<rect x="378" y="64" width="9" height="16" fill="#c47a3d" fill-opacity="1"/>
<rect x="387" y="64" width="9" height="16" fill="#c47a3d" fill-opacity="1"/>
<rect x="396" y="64" width="9" height="16" fill="#c47a3d" fill-opacity="1"/>
<rect x="405" y="64" width="9" height="16" fill="#c47a3d" fill-opacity="1"/>
<rect x="423" y="64" width="9" height="16" fill="#c47a3d" fill-opacity="0.38"/>
<rect x="432" y="64" width="9" height="16" fill="#c47a3d" fill-opacity="1"/>
<rect x="441" y="64" width="9" height="16" fill="#c47a3d" fill-opacity="1"/>
<rect x="513" y="64" width="9" height="16" fill="#c47a3d" fill-opacity="0.38"/>
<rect x="522" y="64" width="9" height="16" fill="#c47a3d" fill-opacity="1"/>
<rect x="531" y="64" width="9" height="16" fill="#c47a3d" fill-opacity="1"/>
<rect x="540" y="64" width="9" height="16" fill="#c47a3d" fill-opacity="1"/>
<rect x="549" y="64" width="9" height="16" fill="#c47a3d" fill-opacity="1"/>
<rect x="558" y="64" width="9" height="16" fill="#c47a3d" fill-opacity="1"/>
<rect x="567" y="64" width="9" height="16" fill="#c47a3d" fill-opacity="1"/>
<rect x="576" y="64" width="9" height="16" fill="#c47a3d" fill-opacity="1"/>
<rect x="0" y="80" width="9" height="16" fill="#c47a3d" fill-opacity="0.38"/>
<rect x="9" y="80" width="9" height="16" fill="#c47a3d" fill-opacity="1"/>
<rect x="18" y="80" width="9" height="16" fill="#c47a3d" fill-opacity="1"/>
<rect x="27" y="80" width="9" height="16" fill="#c47a3d" fill-opacity="1"/>
<rect x="36" y="80" width="9" height="16" fill="#c47a3d" fill-opacity="1"/>
<rect x="72" y="80" width="9" height="16" fill="#c47a3d" fill-opacity="0.38"/>
<rect x="81" y="80" width="9" height="16" fill="#c47a3d" fill-opacity="1"/>
<rect x="90" y="80" width="9" height="16" fill="#c47a3d" fill-opacity="1"/>
<rect x="99" y="80" width="9" height="16" fill="#c47a3d" fill-opacity="1"/>
<rect x="108" y="80" width="9" height="16" fill="#c47a3d" fill-opacity="1"/>
<rect x="126" y="80" width="9" height="16" fill="#c47a3d" fill-opacity="0.38"/>
<rect x="135" y="80" width="9" height="16" fill="#c47a3d" fill-opacity="1"/>
<rect x="144" y="80" width="9" height="16" fill="#c47a3d" fill-opacity="1"/>
<rect x="207" y="80" width="9" height="16" fill="#c47a3d" fill-opacity="0.38"/>
<rect x="216" y="80" width="9" height="16" fill="#c47a3d" fill-opacity="1"/>
<rect x="225" y="80" width="9" height="16" fill="#c47a3d" fill-opacity="1"/>
<rect x="261" y="80" width="9" height="16" fill="#c47a3d" fill-opacity="0.38"/>
<rect x="270" y="80" width="9" height="16" fill="#c47a3d" fill-opacity="1"/>
<rect x="279" y="80" width="9" height="16" fill="#c47a3d" fill-opacity="1"/>
<rect x="324" y="80" width="9" height="16" fill="#c47a3d" fill-opacity="0.38"/>
<rect x="333" y="80" width="9" height="16" fill="#c47a3d" fill-opacity="1"/>
<rect x="342" y="80" width="9" height="16" fill="#c47a3d" fill-opacity="1"/>
<rect x="423" y="80" width="9" height="16" fill="#c47a3d" fill-opacity="0.38"/>
<rect x="432" y="80" width="9" height="16" fill="#c47a3d" fill-opacity="1"/>
<rect x="441" y="80" width="9" height="16" fill="#c47a3d" fill-opacity="1"/>
<rect x="567" y="80" width="9" height="16" fill="#c47a3d" fill-opacity="0.38"/>
<rect x="576" y="80" width="9" height="16" fill="#c47a3d" fill-opacity="1"/>
<rect x="585" y="80" width="9" height="16" fill="#c47a3d" fill-opacity="1"/>
<rect x="0" y="96" width="9" height="16" fill="#c47a3d" fill-opacity="0.38"/>
<rect x="9" y="96" width="9" height="16" fill="#c47a3d" fill-opacity="1"/>
<rect x="18" y="96" width="9" height="16" fill="#c47a3d" fill-opacity="1"/>
<rect x="27" y="96" width="9" height="16" fill="#c47a3d" fill-opacity="1"/>
<rect x="81" y="96" width="9" height="16" fill="#c47a3d" fill-opacity="0.38"/>
<rect x="90" y="96" width="9" height="16" fill="#c47a3d" fill-opacity="1"/>
<rect x="99" y="96" width="9" height="16" fill="#c47a3d" fill-opacity="1"/>
<rect x="108" y="96" width="9" height="16" fill="#c47a3d" fill-opacity="1"/>
<rect x="126" y="96" width="9" height="16" fill="#c47a3d" fill-opacity="0.38"/>
<rect x="135" y="96" width="9" height="16" fill="#c47a3d" fill-opacity="1"/>
<rect x="144" y="96" width="9" height="16" fill="#c47a3d" fill-opacity="1"/>
<rect x="207" y="96" width="9" height="16" fill="#c47a3d" fill-opacity="0.38"/>
<rect x="216" y="96" width="9" height="16" fill="#c47a3d" fill-opacity="1"/>
<rect x="225" y="96" width="9" height="16" fill="#c47a3d" fill-opacity="1"/>
<rect x="270" y="96" width="9" height="16" fill="#c47a3d" fill-opacity="0.38"/>
<rect x="279" y="96" width="9" height="16" fill="#c47a3d" fill-opacity="1"/>
<rect x="288" y="96" width="9" height="16" fill="#c47a3d" fill-opacity="1"/>
<rect x="297" y="96" width="9" height="16" fill="#c47a3d" fill-opacity="1"/>
<rect x="306" y="96" width="9" height="16" fill="#c47a3d" fill-opacity="1"/>
<rect x="333" y="96" width="9" height="16" fill="#c47a3d" fill-opacity="0.38"/>
<rect x="342" y="96" width="9" height="16" fill="#c47a3d" fill-opacity="1"/>
<rect x="351" y="96" width="9" height="16" fill="#c47a3d" fill-opacity="1"/>
<rect x="360" y="96" width="9" height="16" fill="#c47a3d" fill-opacity="1"/>
<rect x="369" y="96" width="9" height="16" fill="#c47a3d" fill-opacity="1"/>
<rect x="378" y="96" width="9" height="16" fill="#c47a3d" fill-opacity="1"/>
<rect x="387" y="96" width="9" height="16" fill="#c47a3d" fill-opacity="1"/>
<rect x="396" y="96" width="9" height="16" fill="#c47a3d" fill-opacity="1"/>
<rect x="423" y="96" width="9" height="16" fill="#c47a3d" fill-opacity="0.38"/>
<rect x="432" y="96" width="9" height="16" fill="#c47a3d" fill-opacity="1"/>
<rect x="441" y="96" width="9" height="16" fill="#c47a3d" fill-opacity="1"/>
<rect x="513" y="96" width="9" height="16" fill="#c47a3d" fill-opacity="0.38"/>
<rect x="522" y="96" width="9" height="16" fill="#c47a3d" fill-opacity="1"/>
<rect x="531" y="96" width="9" height="16" fill="#c47a3d" fill-opacity="1"/>
<rect x="540" y="96" width="9" height="16" fill="#c47a3d" fill-opacity="1"/>
<rect x="549" y="96" width="9" height="16" fill="#c47a3d" fill-opacity="1"/>
<rect x="558" y="96" width="9" height="16" fill="#c47a3d" fill-opacity="1"/>
<rect x="567" y="96" width="9" height="16" fill="#c47a3d" fill-opacity="1"/>
<rect x="576" y="96" width="9" height="16" fill="#c47a3d" fill-opacity="1"/>
<rect x="0" y="128" width="9" height="16" fill="#c47a3d" fill-opacity="0.38"/>
<rect x="9" y="128" width="9" height="16" fill="#c47a3d" fill-opacity="1"/>
<rect x="18" y="128" width="9" height="16" fill="#c47a3d" fill-opacity="1"/>
<rect x="27" y="128" width="9" height="16" fill="#c47a3d" fill-opacity="1"/>
<rect x="36" y="128" width="9" height="16" fill="#c47a3d" fill-opacity="1"/>
<rect x="45" y="128" width="9" height="16" fill="#c47a3d" fill-opacity="1"/>
<rect x="54" y="128" width="9" height="16" fill="#c47a3d" fill-opacity="1"/>
<rect x="63" y="128" width="9" height="16" fill="#c47a3d" fill-opacity="1"/>
<rect x="72" y="128" width="9" height="16" fill="#c47a3d" fill-opacity="1"/>
<rect x="81" y="128" width="9" height="16" fill="#c47a3d" fill-opacity="1"/>
<rect x="0" y="144" width="9" height="16" fill="#c47a3d" fill-opacity="0.38"/>
<rect x="9" y="144" width="9" height="16" fill="#c47a3d" fill-opacity="1"/>
<rect x="18" y="144" width="9" height="16" fill="#c47a3d" fill-opacity="1"/>
<rect x="72" y="144" width="9" height="16" fill="#c47a3d" fill-opacity="0.38"/>
<rect x="81" y="144" width="9" height="16" fill="#c47a3d" fill-opacity="1"/>
<rect x="90" y="144" width="9" height="16" fill="#c47a3d" fill-opacity="1"/>
<rect x="0" y="160" width="9" height="16" fill="#c47a3d" fill-opacity="0.38"/>
<rect x="9" y="160" width="9" height="16" fill="#c47a3d" fill-opacity="1"/>
<rect x="18" y="160" width="9" height="16" fill="#c47a3d" fill-opacity="1"/>
<rect x="72" y="160" width="9" height="16" fill="#c47a3d" fill-opacity="0.38"/>
<rect x="81" y="160" width="9" height="16" fill="#c47a3d" fill-opacity="1"/>
<rect x="90" y="160" width="9" height="16" fill="#c47a3d" fill-opacity="1"/>
<rect x="117" y="160" width="9" height="16" fill="#c47a3d" fill-opacity="0.38"/>
<rect x="126" y="160" width="9" height="16" fill="#c47a3d" fill-opacity="1"/>
<rect x="135" y="160" width="9" height="16" fill="#c47a3d" fill-opacity="1"/>
<rect x="144" y="160" width="9" height="16" fill="#c47a3d" fill-opacity="1"/>
<rect x="153" y="160" width="9" height="16" fill="#c47a3d" fill-opacity="1"/>
<rect x="162" y="160" width="9" height="16" fill="#c47a3d" fill-opacity="1"/>
<rect x="171" y="160" width="9" height="16" fill="#c47a3d" fill-opacity="1"/>
<rect x="180" y="160" width="9" height="16" fill="#c47a3d" fill-opacity="1"/>
<rect x="216" y="160" width="9" height="16" fill="#c47a3d" fill-opacity="0.38"/>
<rect x="225" y="160" width="9" height="16" fill="#c47a3d" fill-opacity="1"/>
<rect x="234" y="160" width="9" height="16" fill="#c47a3d" fill-opacity="1"/>
<rect x="243" y="160" width="9" height="16" fill="#c47a3d" fill-opacity="1"/>
<rect x="252" y="160" width="9" height="16" fill="#c47a3d" fill-opacity="1"/>
<rect x="261" y="160" width="9" height="16" fill="#c47a3d" fill-opacity="1"/>
<rect x="270" y="160" width="9" height="16" fill="#c47a3d" fill-opacity="1"/>
<rect x="279" y="160" width="9" height="16" fill="#c47a3d" fill-opacity="1"/>
<rect x="306" y="160" width="9" height="16" fill="#c47a3d" fill-opacity="0.38"/>
<rect x="315" y="160" width="9" height="16" fill="#c47a3d" fill-opacity="1"/>
<rect x="324" y="160" width="9" height="16" fill="#c47a3d" fill-opacity="1"/>
<rect x="333" y="160" width="9" height="16" fill="#c47a3d" fill-opacity="1"/>
<rect x="342" y="160" width="9" height="16" fill="#c47a3d" fill-opacity="1"/>
<rect x="351" y="160" width="9" height="16" fill="#c47a3d" fill-opacity="1"/>
<rect x="360" y="160" width="9" height="16" fill="#c47a3d" fill-opacity="1"/>
<rect x="369" y="160" width="9" height="16" fill="#c47a3d" fill-opacity="1"/>
<rect x="378" y="160" width="9" height="16" fill="#c47a3d" fill-opacity="1"/>
<rect x="387" y="160" width="9" height="16" fill="#c47a3d" fill-opacity="1"/>
<rect x="396" y="160" width="9" height="16" fill="#c47a3d" fill-opacity="1"/>
<rect x="405" y="160" width="9" height="16" fill="#c47a3d" fill-opacity="1"/>
<rect x="414" y="160" width="9" height="16" fill="#c47a3d" fill-opacity="1"/>
<rect x="423" y="160" width="9" height="16" fill="#c47a3d" fill-opacity="1"/>
<rect x="0" y="176" width="9" height="16" fill="#c47a3d" fill-opacity="0.38"/>
<rect x="9" y="176" width="9" height="16" fill="#c47a3d" fill-opacity="1"/>
<rect x="18" y="176" width="9" height="16" fill="#c47a3d" fill-opacity="1"/>
<rect x="27" y="176" width="9" height="16" fill="#c47a3d" fill-opacity="1"/>
<rect x="36" y="176" width="9" height="16" fill="#c47a3d" fill-opacity="1"/>
<rect x="45" y="176" width="9" height="16" fill="#c47a3d" fill-opacity="1"/>
<rect x="54" y="176" width="9" height="16" fill="#c47a3d" fill-opacity="1"/>
<rect x="63" y="176" width="9" height="16" fill="#c47a3d" fill-opacity="1"/>
<rect x="72" y="176" width="9" height="16" fill="#c47a3d" fill-opacity="1"/>
<rect x="81" y="176" width="9" height="16" fill="#c47a3d" fill-opacity="1"/>
<rect x="108" y="176" width="9" height="16" fill="#c47a3d" fill-opacity="0.38"/>
<rect x="117" y="176" width="9" height="16" fill="#c47a3d" fill-opacity="1"/>
<rect x="126" y="176" width="9" height="16" fill="#c47a3d" fill-opacity="1"/>
<rect x="171" y="176" width="9" height="16" fill="#c47a3d" fill-opacity="0.38"/>
<rect x="180" y="176" width="9" height="16" fill="#c47a3d" fill-opacity="1"/>
<rect x="189" y="176" width="9" height="16" fill="#c47a3d" fill-opacity="1"/>
<rect x="207" y="176" width="9" height="16" fill="#c47a3d" fill-opacity="0.38"/>
<rect x="216" y="176" width="9" height="16" fill="#c47a3d" fill-opacity="1"/>
<rect x="225" y="176" width="9" height="16" fill="#c47a3d" fill-opacity="1"/>
<rect x="270" y="176" width="9" height="16" fill="#c47a3d" fill-opacity="0.38"/>
<rect x="279" y="176" width="9" height="16" fill="#c47a3d" fill-opacity="1"/>
<rect x="288" y="176" width="9" height="16" fill="#c47a3d" fill-opacity="1"/>
<rect x="306" y="176" width="9" height="16" fill="#c47a3d" fill-opacity="0.38"/>
<rect x="315" y="176" width="9" height="16" fill="#c47a3d" fill-opacity="1"/>
<rect x="324" y="176" width="9" height="16" fill="#c47a3d" fill-opacity="1"/>
<rect x="360" y="176" width="9" height="16" fill="#c47a3d" fill-opacity="0.38"/>
<rect x="369" y="176" width="9" height="16" fill="#c47a3d" fill-opacity="1"/>
<rect x="378" y="176" width="9" height="16" fill="#c47a3d" fill-opacity="1"/>
<rect x="414" y="176" width="9" height="16" fill="#c47a3d" fill-opacity="0.38"/>
<rect x="423" y="176" width="9" height="16" fill="#c47a3d" fill-opacity="1"/>
<rect x="432" y="176" width="9" height="16" fill="#c47a3d" fill-opacity="1"/>
<rect x="0" y="192" width="9" height="16" fill="#c47a3d" fill-opacity="0.38"/>
<rect x="9" y="192" width="9" height="16" fill="#c47a3d" fill-opacity="1"/>
<rect x="18" y="192" width="9" height="16" fill="#c47a3d" fill-opacity="1"/>
<rect x="54" y="192" width="9" height="16" fill="#c47a3d" fill-opacity="0.38"/>
<rect x="63" y="192" width="9" height="16" fill="#c47a3d" fill-opacity="1"/>
<rect x="72" y="192" width="9" height="16" fill="#c47a3d" fill-opacity="1"/>
<rect x="108" y="192" width="9" height="16" fill="#c47a3d" fill-opacity="0.38"/>
<rect x="117" y="192" width="9" height="16" fill="#c47a3d" fill-opacity="1"/>
<rect x="126" y="192" width="9" height="16" fill="#c47a3d" fill-opacity="1"/>
<rect x="171" y="192" width="9" height="16" fill="#c47a3d" fill-opacity="0.38"/>
<rect x="180" y="192" width="9" height="16" fill="#c47a3d" fill-opacity="1"/>
<rect x="189" y="192" width="9" height="16" fill="#c47a3d" fill-opacity="1"/>
<rect x="207" y="192" width="9" height="16" fill="#c47a3d" fill-opacity="0.38"/>
<rect x="216" y="192" width="9" height="16" fill="#c47a3d" fill-opacity="1"/>
<rect x="225" y="192" width="9" height="16" fill="#c47a3d" fill-opacity="1"/>
<rect x="270" y="192" width="9" height="16" fill="#c47a3d" fill-opacity="0.38"/>
<rect x="279" y="192" width="9" height="16" fill="#c47a3d" fill-opacity="1"/>
<rect x="288" y="192" width="9" height="16" fill="#c47a3d" fill-opacity="1"/>
<rect x="306" y="192" width="9" height="16" fill="#c47a3d" fill-opacity="0.38"/>
<rect x="315" y="192" width="9" height="16" fill="#c47a3d" fill-opacity="1"/>
<rect x="324" y="192" width="9" height="16" fill="#c47a3d" fill-opacity="1"/>
<rect x="360" y="192" width="9" height="16" fill="#c47a3d" fill-opacity="0.38"/>
<rect x="369" y="192" width="9" height="16" fill="#c47a3d" fill-opacity="1"/>
<rect x="378" y="192" width="9" height="16" fill="#c47a3d" fill-opacity="1"/>
<rect x="414" y="192" width="9" height="16" fill="#c47a3d" fill-opacity="0.38"/>
<rect x="423" y="192" width="9" height="16" fill="#c47a3d" fill-opacity="1"/>
<rect x="432" y="192" width="9" height="16" fill="#c47a3d" fill-opacity="1"/>
<rect x="0" y="208" width="9" height="16" fill="#c47a3d" fill-opacity="0.38"/>
<rect x="9" y="208" width="9" height="16" fill="#c47a3d" fill-opacity="1"/>
<rect x="18" y="208" width="9" height="16" fill="#c47a3d" fill-opacity="1"/>
<rect x="63" y="208" width="9" height="16" fill="#c47a3d" fill-opacity="0.38"/>
<rect x="72" y="208" width="9" height="16" fill="#c47a3d" fill-opacity="1"/>
<rect x="81" y="208" width="9" height="16" fill="#c47a3d" fill-opacity="1"/>
<rect x="108" y="208" width="9" height="16" fill="#c47a3d" fill-opacity="0.38"/>
<rect x="117" y="208" width="9" height="16" fill="#c47a3d" fill-opacity="1"/>
<rect x="126" y="208" width="9" height="16" fill="#c47a3d" fill-opacity="1"/>
<rect x="171" y="208" width="9" height="16" fill="#c47a3d" fill-opacity="0.38"/>
<rect x="180" y="208" width="9" height="16" fill="#c47a3d" fill-opacity="1"/>
<rect x="189" y="208" width="9" height="16" fill="#c47a3d" fill-opacity="1"/>
<rect x="207" y="208" width="9" height="16" fill="#c47a3d" fill-opacity="0.38"/>
<rect x="216" y="208" width="9" height="16" fill="#c47a3d" fill-opacity="1"/>
<rect x="225" y="208" width="9" height="16" fill="#c47a3d" fill-opacity="1"/>
<rect x="270" y="208" width="9" height="16" fill="#c47a3d" fill-opacity="0.38"/>
<rect x="279" y="208" width="9" height="16" fill="#c47a3d" fill-opacity="1"/>
<rect x="288" y="208" width="9" height="16" fill="#c47a3d" fill-opacity="1"/>
<rect x="306" y="208" width="9" height="16" fill="#c47a3d" fill-opacity="0.38"/>
<rect x="315" y="208" width="9" height="16" fill="#c47a3d" fill-opacity="1"/>
<rect x="324" y="208" width="9" height="16" fill="#c47a3d" fill-opacity="1"/>
<rect x="360" y="208" width="9" height="16" fill="#c47a3d" fill-opacity="0.38"/>
<rect x="369" y="208" width="9" height="16" fill="#c47a3d" fill-opacity="1"/>
<rect x="378" y="208" width="9" height="16" fill="#c47a3d" fill-opacity="1"/>
<rect x="414" y="208" width="9" height="16" fill="#c47a3d" fill-opacity="0.38"/>
<rect x="423" y="208" width="9" height="16" fill="#c47a3d" fill-opacity="1"/>
<rect x="432" y="208" width="9" height="16" fill="#c47a3d" fill-opacity="1"/>
<rect x="0" y="224" width="9" height="16" fill="#c47a3d" fill-opacity="0.38"/>
<rect x="9" y="224" width="9" height="16" fill="#c47a3d" fill-opacity="1"/>
<rect x="18" y="224" width="9" height="16" fill="#c47a3d" fill-opacity="1"/>
<rect x="72" y="224" width="9" height="16" fill="#c47a3d" fill-opacity="0.38"/>
<rect x="81" y="224" width="9" height="16" fill="#c47a3d" fill-opacity="1"/>
<rect x="90" y="224" width="9" height="16" fill="#c47a3d" fill-opacity="1"/>
<rect x="117" y="224" width="9" height="16" fill="#c47a3d" fill-opacity="0.38"/>
<rect x="126" y="224" width="9" height="16" fill="#c47a3d" fill-opacity="1"/>
<rect x="135" y="224" width="9" height="16" fill="#c47a3d" fill-opacity="1"/>
<rect x="144" y="224" width="9" height="16" fill="#c47a3d" fill-opacity="1"/>
<rect x="153" y="224" width="9" height="16" fill="#c47a3d" fill-opacity="1"/>
<rect x="162" y="224" width="9" height="16" fill="#c47a3d" fill-opacity="1"/>
<rect x="171" y="224" width="9" height="16" fill="#c47a3d" fill-opacity="1"/>
<rect x="180" y="224" width="9" height="16" fill="#c47a3d" fill-opacity="1"/>
<rect x="216" y="224" width="9" height="16" fill="#c47a3d" fill-opacity="0.38"/>
<rect x="225" y="224" width="9" height="16" fill="#c47a3d" fill-opacity="1"/>
<rect x="234" y="224" width="9" height="16" fill="#c47a3d" fill-opacity="1"/>
<rect x="243" y="224" width="9" height="16" fill="#c47a3d" fill-opacity="1"/>
<rect x="252" y="224" width="9" height="16" fill="#c47a3d" fill-opacity="1"/>
<rect x="261" y="224" width="9" height="16" fill="#c47a3d" fill-opacity="1"/>
<rect x="270" y="224" width="9" height="16" fill="#c47a3d" fill-opacity="1"/>
<rect x="279" y="224" width="9" height="16" fill="#c47a3d" fill-opacity="1"/>
<rect x="306" y="224" width="9" height="16" fill="#c47a3d" fill-opacity="0.38"/>
<rect x="315" y="224" width="9" height="16" fill="#c47a3d" fill-opacity="1"/>
<rect x="324" y="224" width="9" height="16" fill="#c47a3d" fill-opacity="1"/>
<rect x="360" y="224" width="9" height="16" fill="#c47a3d" fill-opacity="0.38"/>
<rect x="369" y="224" width="9" height="16" fill="#c47a3d" fill-opacity="1"/>
<rect x="378" y="224" width="9" height="16" fill="#c47a3d" fill-opacity="1"/>
<rect x="414" y="224" width="9" height="16" fill="#c47a3d" fill-opacity="0.38"/>
<rect x="423" y="224" width="9" height="16" fill="#c47a3d" fill-opacity="1"/>
<rect x="432" y="224" width="9" height="16" fill="#c47a3d" fill-opacity="1"/>
</svg>
